<mxfile host="app.diagrams.net" modified="2021-12-07T13:59:18.119Z" agent="5.0 (Windows NT 10.0; Win64; x64) AppleWebKit/537.36 (KHTML, like Gecko) Chrome/96.0.4664.45 Safari/537.36" etag="8ubaSRlL5-f8lUlnMYqO" version="15.8.9" type="github">
  <diagram id="qNv-1C6ZtIn8PWZxlzKp" name="Page-1">
    <mxGraphModel dx="1038" dy="537" grid="1" gridSize="10" guides="1" tooltips="1" connect="1" arrows="1" fold="1" page="1" pageScale="1" pageWidth="827" pageHeight="1169" math="0" shadow="0">
      <root>
        <mxCell id="0" />
        <mxCell id="1" parent="0" />
        <mxCell id="IvsRekMhqFxOVzrKXNP0-1" value="State controller" style="rounded=0;whiteSpace=wrap;html=1;" vertex="1" parent="1">
          <mxGeometry x="100" y="80" width="120" height="60" as="geometry" />
        </mxCell>
        <mxCell id="IvsRekMhqFxOVzrKXNP0-2" value="Particle actor" style="rounded=0;whiteSpace=wrap;html=1;" vertex="1" parent="1">
          <mxGeometry x="295" y="80" width="120" height="60" as="geometry" />
        </mxCell>
        <mxCell id="IvsRekMhqFxOVzrKXNP0-3" value="" style="endArrow=none;dashed=1;html=1;rounded=0;startArrow=none;" edge="1" parent="1" source="IvsRekMhqFxOVzrKXNP0-5">
          <mxGeometry width="50" height="50" relative="1" as="geometry">
            <mxPoint x="160" y="520" as="sourcePoint" />
            <mxPoint x="160" y="140" as="targetPoint" />
          </mxGeometry>
        </mxCell>
        <mxCell id="IvsRekMhqFxOVzrKXNP0-4" value="" style="endArrow=none;dashed=1;html=1;rounded=0;startArrow=none;" edge="1" parent="1" source="IvsRekMhqFxOVzrKXNP0-7">
          <mxGeometry width="50" height="50" relative="1" as="geometry">
            <mxPoint x="354.5" y="520" as="sourcePoint" />
            <mxPoint x="354.5" y="140" as="targetPoint" />
          </mxGeometry>
        </mxCell>
        <mxCell id="IvsRekMhqFxOVzrKXNP0-5" value="" style="rounded=0;whiteSpace=wrap;html=1;" vertex="1" parent="1">
          <mxGeometry x="145" y="190" width="30" height="230" as="geometry" />
        </mxCell>
        <mxCell id="IvsRekMhqFxOVzrKXNP0-6" value="" style="endArrow=none;dashed=1;html=1;rounded=0;" edge="1" parent="1" target="IvsRekMhqFxOVzrKXNP0-5">
          <mxGeometry width="50" height="50" relative="1" as="geometry">
            <mxPoint x="160" y="520" as="sourcePoint" />
            <mxPoint x="160" y="140" as="targetPoint" />
          </mxGeometry>
        </mxCell>
        <mxCell id="IvsRekMhqFxOVzrKXNP0-7" value="" style="rounded=0;whiteSpace=wrap;html=1;" vertex="1" parent="1">
          <mxGeometry x="340" y="190" width="30" height="230" as="geometry" />
        </mxCell>
        <mxCell id="IvsRekMhqFxOVzrKXNP0-8" value="" style="endArrow=none;dashed=1;html=1;rounded=0;" edge="1" parent="1" target="IvsRekMhqFxOVzrKXNP0-7">
          <mxGeometry width="50" height="50" relative="1" as="geometry">
            <mxPoint x="354.5" y="520" as="sourcePoint" />
            <mxPoint x="354.5" y="140" as="targetPoint" />
          </mxGeometry>
        </mxCell>
        <mxCell id="IvsRekMhqFxOVzrKXNP0-9" value="tell(receivingState)" style="text;html=1;strokeColor=none;fillColor=none;align=center;verticalAlign=middle;whiteSpace=wrap;rounded=0;" vertex="1" parent="1">
          <mxGeometry x="220" y="210" width="90" height="30" as="geometry" />
        </mxCell>
        <mxCell id="IvsRekMhqFxOVzrKXNP0-10" value="" style="edgeStyle=orthogonalEdgeStyle;html=1;verticalAlign=bottom;endArrow=open;endSize=8;strokeColor=#000000;rounded=0;exitX=0.952;exitY=0.619;exitDx=0;exitDy=0;exitPerimeter=0;" edge="1" parent="1">
          <mxGeometry relative="1" as="geometry">
            <mxPoint x="338" y="250" as="targetPoint" />
            <mxPoint x="175" y="249.51999999999998" as="sourcePoint" />
            <Array as="points">
              <mxPoint x="300" y="250" />
              <mxPoint x="300" y="250" />
            </Array>
          </mxGeometry>
        </mxCell>
        <mxCell id="IvsRekMhqFxOVzrKXNP0-11" value="" style="edgeStyle=orthogonalEdgeStyle;html=1;verticalAlign=bottom;endArrow=open;endSize=8;strokeColor=#000000;rounded=0;exitX=0.952;exitY=0.619;exitDx=0;exitDy=0;exitPerimeter=0;" edge="1" parent="1">
          <mxGeometry relative="1" as="geometry">
            <mxPoint x="370" y="310" as="targetPoint" />
            <mxPoint x="370" y="274.52" as="sourcePoint" />
            <Array as="points">
              <mxPoint x="410" y="275" />
              <mxPoint x="410" y="310" />
              <mxPoint x="370" y="310" />
            </Array>
          </mxGeometry>
        </mxCell>
        <mxCell id="IvsRekMhqFxOVzrKXNP0-12" value="receiving()" style="text;html=1;strokeColor=none;fillColor=none;align=center;verticalAlign=middle;whiteSpace=wrap;rounded=0;" vertex="1" parent="1">
          <mxGeometry x="415" y="280" width="90" height="30" as="geometry" />
        </mxCell>
      </root>
    </mxGraphModel>
  </diagram>
</mxfile>
